<?xml version="1.0" encoding="UTF-8"?><svg id="a" xmlns="http://www.w3.org/2000/svg" viewBox="0 0 439.94 381"><defs><style>.b{fill:#545454;}.c{fill:#f2f2f2;}</style></defs><g><polygon class="b" points="110.27 380.5 .58 190.5 110.27 .5 329.67 .5 439.36 190.5 329.67 380.5 110.27 380.5"/><path d="M329.38,1l109.41,189.5-109.41,189.5H110.56L1.15,190.5,110.56,1h218.82m.58-1H109.99L0,190.5l109.99,190.5h219.97l109.99-190.5L329.96,0h0Z"/></g><g><path class="c" d="M192.61,107.49v-5.5c0-1.87-1.52-3.39-3.39-3.39s-3.39,1.52-3.39,3.39v5.5c0,1.87,1.52,3.39,3.39,3.39s3.39-1.52,3.39-3.39Z"/><path class="c" d="M253.38,107.49v-5.5c0-1.87-1.52-3.39-3.39-3.39s-3.39,1.52-3.39,3.39v5.5c0,1.87,1.52,3.39,3.39,3.39s3.39-1.52,3.39-3.39Z"/><path class="c" d="M219.6,113.82c3.9,0,7.57-1.63,10.06-4.48,1.23-1.41,1.09-3.56-.32-4.79-1.41-1.23-3.56-1.09-4.79,.32-1.2,1.37-3,2.16-4.94,2.16s-3.74-.79-4.95-2.16c-1.23-1.41-3.38-1.56-4.79-.32-1.41,1.23-1.56,3.38-.32,4.79,2.49,2.85,6.15,4.48,10.06,4.48Z"/><path class="c" d="M332.08,242.69c-1.87,0-3.39,1.52-3.39,3.39v33.29c0,5.42-4.41,9.83-9.83,9.83h-12.62v-81.6c0-23.1-9.02-44.85-25.4-61.23-16.38-16.38-38.12-25.4-61.23-25.4s-44.85,9.02-61.23,25.4c-16.38,16.38-25.4,38.12-25.4,61.23v81.6h-12.62c-5.42,0-9.83-4.41-9.83-9.83V141.09c0-1.88-1.52-3.39-3.39-3.39s-3.39,1.52-3.39,3.39v138.29c0,9.17,7.46,16.62,16.62,16.62h198.49c9.17,0,16.62-7.46,16.62-16.62v-33.29c0-1.88-1.52-3.39-3.39-3.39Zm-66.58-31.69h33.95v35.71h-33.95v-35.71Zm-.12-6.8c-1.16-9.83-4.43-18.92-11.01-26.53h0l24.03-24.04c12.84,13.95,20.2,31.69,20.99,50.58,0,0-34,0-34,0Zm-15.83-31.35c-.98-.84-1.99-1.64-3.03-2.4-6.85-4.98-15.07-7.99-23.51-8.61v-34c18.89,.79,36.63,8.15,50.58,20.99,0,0-24.03,24.03-24.03,24.02Zm-33.34-45.01s0,34,0,34c-7.28,.53-14.41,2.83-20.62,6.67-2.08,1.29-4.06,2.74-5.92,4.35l-24.03-24.03c13.95-12.84,31.69-20.2,50.58-20.99Zm-55.38,25.79l24.03,24.03h-.01c-6.34,7.48-10.29,16.76-11.01,26.55h-34c.79-18.89,8.15-36.63,20.99-50.58Zm-21.06,57.37h33.95v35.71h-33.95v-35.71Zm0,42.5h33.95v35.71h-33.95v-35.71Zm40.73-45.89c0-21.21,17.93-39.1,39.1-39.1s39.1,17.84,39.1,39.1v81.6h-78.2v-81.6Zm84.99,81.6v-35.71h33.95v35.71h-33.95Z"/><path class="c" d="M318.85,85.34H120.36c-9.17,0-16.62,7.46-16.62,16.62v25.55c0,1.87,1.52,3.39,3.39,3.39s3.39-1.52,3.39-3.39v-25.55c0-5.42,4.41-9.83,9.83-9.83h198.49c5.42,0,9.83,4.41,9.83,9.83V232.51c0,1.87,1.52,3.39,3.39,3.39s3.39-1.52,3.39-3.39V101.96c0-9.17-7.46-16.62-16.62-16.62Z"/></g></svg>