<svg width="387" height="59" viewBox="0 0 387 59" fill="none" xmlns="http://www.w3.org/2000/svg">
    <g filter="url(#filter0_d_24890_53512)">
        <rect x="8" y="8" width="66" height="43" rx="10" fill="white"/>
        <g clip-path="url(#clip0_24890_53512)">
            <path d="M46.6444 22L46 22.2931C44.0125 23.1694 41.1419 23.4994 38.695 24.3631C37.4719 24.7956 36.3394 25.3719 35.4925 26.2969C34.645 27.2219 34.125 28.4969 34.125 30.125C34.125 31.8094 35.1162 32.9644 36.0394 33.6212C36.3819 33.866 36.7484 34.0754 37.1331 34.2462C36.7469 34.9612 36.4613 35.6062 36.2731 36.16C35.9319 37.1587 35.8781 37.94 35.9025 38.5037C35.9269 39.0681 36 39.4537 36 39.4412L37.25 39.5587C37.2894 39.1069 37.1719 38.87 37.1525 38.445C37.1331 38.02 37.1694 37.4369 37.465 36.57C38.0556 34.8394 39.6937 31.99 43.9494 27.4294L43.0506 26.5706C40.4994 29.3044 38.8519 31.4362 37.7775 33.1519C37.4184 33.011 37.0774 32.8276 36.7619 32.6056C36.0369 32.0906 35.375 31.3356 35.375 30.125C35.375 28.7481 35.7681 27.84 36.41 27.1369C37.0525 26.4337 37.9875 25.9306 39.1056 25.535C41.1294 24.82 43.6344 24.4587 45.785 23.66C45.985 24.4194 46.625 27.0194 46.625 31.0819C46.625 33.3869 46.0856 34.7075 45.4531 35.4375C44.8206 36.1675 44.0594 36.375 43.3825 36.375C42.7088 36.375 41.9813 36.0312 41.3513 35.5937C40.7219 35.1562 40.2869 34.7 39.8475 34.4219L39.1837 35.4769C39.2962 35.5475 39.9187 36.1237 40.6487 36.6287C41.3781 37.1344 42.3038 37.625 43.3825 37.625C44.345 37.625 45.5213 37.2856 46.41 36.2575C47.2988 35.2306 47.875 33.5794 47.875 31.0825C47.875 26.1944 46.84 22.6837 46.84 22.6837L46.6444 22Z" fill="#7CCF3A"/>
        </g>
    </g>
    <g filter="url(#filter1_d_24890_53512)">
        <rect x="84" y="8" width="66" height="43" rx="10" fill="white"/>
        <path d="M117 21.375C112.52 21.375 108.875 25.02 108.875 29.5C108.875 33.98 112.52 37.625 117 37.625C121.48 37.625 125.125 33.98 125.125 29.5C125.125 25.02 121.48 21.375 117 21.375ZM117 22.625C120.791 22.625 123.875 25.7094 123.875 29.5C123.875 33.2906 120.791 36.375 117 36.375C113.209 36.375 110.125 33.2906 110.125 29.5C110.125 25.7094 113.209 22.625 117 22.625ZM115.75 25.125C115.584 25.125 115.425 25.1908 115.308 25.3081C115.191 25.4253 115.125 25.5842 115.125 25.75C115.125 25.9158 115.191 26.0747 115.308 26.1919C115.425 26.3092 115.584 26.375 115.75 26.375C115.916 26.375 116.075 26.3092 116.192 26.1919C116.309 26.0747 116.375 25.9158 116.375 25.75C116.375 25.5842 116.309 25.4253 116.192 25.3081C116.075 25.1908 115.916 25.125 115.75 25.125ZM119.188 25.75C118.939 25.75 118.7 25.8488 118.525 26.0246C118.349 26.2004 118.25 26.4389 118.25 26.6875C118.25 26.9361 118.349 27.1746 118.525 27.3504C118.7 27.5262 118.939 27.625 119.188 27.625C119.436 27.625 119.675 27.5262 119.85 27.3504C120.026 27.1746 120.125 26.9361 120.125 26.6875C120.125 26.4389 120.026 26.2004 119.85 26.0246C119.675 25.8488 119.436 25.75 119.188 25.75ZM113.875 27.625C113.543 27.625 113.226 27.7567 112.991 27.9911C112.757 28.2255 112.625 28.5435 112.625 28.875C112.625 29.2065 112.757 29.5245 112.991 29.7589C113.226 29.9933 113.543 30.125 113.875 30.125C114.207 30.125 114.524 29.9933 114.759 29.7589C114.993 29.5245 115.125 29.2065 115.125 28.875C115.125 28.5435 114.993 28.2255 114.759 27.9911C114.524 27.7567 114.207 27.625 113.875 27.625ZM117.625 28.875C117.459 28.875 117.3 28.9408 117.183 29.0581C117.066 29.1753 117 29.3342 117 29.5C117 29.6658 117.066 29.8247 117.183 29.9419C117.3 30.0592 117.459 30.125 117.625 30.125C117.791 30.125 117.95 30.0592 118.067 29.9419C118.184 29.8247 118.25 29.6658 118.25 29.5C118.25 29.3342 118.184 29.1753 118.067 29.0581C117.95 28.9408 117.791 28.875 117.625 28.875ZM120.75 29.5C120.584 29.5 120.425 29.5658 120.308 29.6831C120.191 29.8003 120.125 29.9592 120.125 30.125C120.125 30.2908 120.191 30.4497 120.308 30.5669C120.425 30.6842 120.584 30.75 120.75 30.75C120.916 30.75 121.075 30.6842 121.192 30.5669C121.309 30.4497 121.375 30.2908 121.375 30.125C121.375 29.9592 121.309 29.8003 121.192 29.6831C121.075 29.5658 120.916 29.5 120.75 29.5ZM114.812 31.375C114.564 31.375 114.325 31.4738 114.15 31.6496C113.974 31.8254 113.875 32.0639 113.875 32.3125C113.875 32.5611 113.974 32.7996 114.15 32.9754C114.325 33.1512 114.564 33.25 114.812 33.25C115.061 33.25 115.3 33.1512 115.475 32.9754C115.651 32.7996 115.75 32.5611 115.75 32.3125C115.75 32.0639 115.651 31.8254 115.475 31.6496C115.3 31.4738 115.061 31.375 114.812 31.375V31.375ZM119.188 32C118.939 32 118.7 32.0988 118.525 32.2746C118.349 32.4504 118.25 32.6889 118.25 32.9375C118.25 33.1861 118.349 33.4246 118.525 33.6004C118.7 33.7762 118.939 33.875 119.188 33.875C119.436 33.875 119.675 33.7762 119.85 33.6004C120.026 33.4246 120.125 33.1861 120.125 32.9375C120.125 32.6889 120.026 32.4504 119.85 32.2746C119.675 32.0988 119.436 32 119.188 32Z" fill="#A4B0BD"/>
    </g>
    <g filter="url(#filter2_d_24890_53512)">
        <rect x="160" y="8" width="67" height="43" rx="10" fill="white"/>
        <path d="M188.5 22.625C187.472 22.625 186.625 23.4719 186.625 24.5V36.375H195.375V32H196.625V34.5C196.625 35.5281 197.472 36.375 198.5 36.375C199.528 36.375 200.375 35.5281 200.375 34.5V28.1325C200.375 27.635 200.179 27.1762 199.828 26.8244L196.879 23.875L196 24.7538L197.777 26.5312C197.106 26.8169 196.625 27.4788 196.625 28.25C196.625 29.2781 197.472 30.125 198.5 30.125C198.714 30.1223 198.925 30.0826 199.125 30.0075V34.5C199.125 34.8537 198.854 35.125 198.5 35.125C198.146 35.125 197.875 34.8537 197.875 34.5V32C197.875 31.3163 197.309 30.75 196.625 30.75H195.375V24.5C195.375 23.4719 194.528 22.625 193.5 22.625H188.5ZM188.5 23.875H193.5C193.854 23.875 194.125 24.1463 194.125 24.5V27H187.875V24.5C187.875 24.1463 188.146 23.875 188.5 23.875ZM198.5 27.625C198.852 27.625 199.125 27.8988 199.125 28.25C199.125 28.6019 198.851 28.875 198.5 28.875C198.148 28.875 197.875 28.6012 197.875 28.25C197.875 27.8981 198.149 27.625 198.5 27.625ZM187.875 28.25H194.125V35.125H187.875V28.25Z" fill="#A4B0BD"/>
    </g>
    <g filter="url(#filter3_d_24890_53512)">
        <rect x="237" y="8" width="66" height="43" rx="10" fill="white"/>
        <path d="M265.312 22.625C264.401 22.626 263.527 22.9885 262.883 23.6329C262.238 24.2774 261.876 25.1511 261.875 26.0625V32.9375C261.875 34.8325 263.417 36.375 265.312 36.375C267.208 36.375 268.75 34.8325 268.75 32.9375V29.7525L272.534 34.96C272.854 35.3997 273.272 35.7575 273.757 36.0039C274.241 36.2503 274.777 36.3783 275.32 36.3775C276.045 36.3777 276.75 36.1482 277.336 35.7219V35.7206C278.073 35.184 278.566 34.3771 278.709 33.477C278.851 32.5769 278.631 31.6571 278.096 30.9194L274.055 25.3569C273.519 24.6203 272.712 24.1266 271.812 23.9843C270.912 23.8419 269.992 24.0624 269.254 24.5975C269.023 24.7669 268.814 24.9647 268.633 25.1862C268.244 23.715 266.906 22.625 265.312 22.625ZM265.312 23.875C266.519 23.875 267.5 24.8562 267.5 26.0625V28.875H263.125V26.0625C263.125 24.8562 264.106 23.875 265.312 23.875ZM271.272 25.1906C271.618 25.1901 271.958 25.2716 272.266 25.4282C272.575 25.5849 272.841 25.8123 273.044 26.0919L274.698 28.3662L271.159 30.9394L269.504 28.6644C269.164 28.1947 269.024 27.6091 269.114 27.0361C269.205 26.4631 269.52 25.9495 269.989 25.6081C270.376 25.3269 270.826 25.1906 271.272 25.1906ZM275.432 29.3769L277.086 31.6531C277.426 32.1231 277.566 32.7086 277.475 33.2815C277.384 33.8543 277.07 34.3678 276.601 34.7094C276.132 35.0498 275.546 35.19 274.974 35.0993C274.401 35.0086 273.888 34.6944 273.546 34.2256L271.893 31.95L275.432 29.3769ZM263.125 30.125H267.5V32.9375C267.5 34.1437 266.519 35.125 265.312 35.125C264.106 35.125 263.125 34.1437 263.125 32.9375V30.125Z" fill="#A4B0BD"/>
    </g>
    <g filter="url(#filter4_d_24890_53512)">
        <rect x="313" y="8" width="66" height="43" rx="10" fill="white"/>
        <path d="M346 21.375C344.836 21.375 343.876 22.1731 343.598 23.25H337.875V35.75H354.125V23.25H348.402C348.124 22.1731 347.165 21.375 346 21.375ZM346 22.625C346.506 22.625 346.894 22.8669 347.094 23.25H344.906C345.106 22.8669 345.494 22.625 346 22.625ZM339.125 24.5H352.875V30.125H339.125V24.5ZM346 28.25C345.656 28.25 345.375 28.5312 345.375 28.875C345.375 29.2188 345.656 29.5 346 29.5C346.344 29.5 346.625 29.2188 346.625 28.875C346.625 28.5312 346.344 28.25 346 28.25ZM339.125 31.375H352.875V34.5H339.125V31.375Z" fill="#A4B0BD"/>
    </g>
    <defs>
        <filter id="filter0_d_24890_53512" x="0" y="0" filterUnits="userSpaceOnUse" color-interpolation-filters="sRGB">
            <feFlood flood-opacity="0" result="BackgroundImageFix"/>
            <feColorMatrix in="SourceAlpha" type="matrix" values="0 0 0 0 0 0 0 0 0 0 0 0 0 0 0 0 0 0 127 0" result="hardAlpha"/>
            <feOffset/>
            <feGaussianBlur stdDeviation="4"/>
            <feColorMatrix type="matrix" values="0 0 0 0 0.345833 0 0 0 0 0.345833 0 0 0 0 0.345833 0 0 0 0.1 0"/>
            <feBlend mode="normal" in2="BackgroundImageFix" result="effect1_dropShadow_24890_53512"/>
            <feBlend mode="normal" in="SourceGraphic" in2="effect1_dropShadow_24890_53512" result="shape"/>
        </filter>
        <filter id="filter1_d_24890_53512" x="76" y="0" width="82" height="59" filterUnits="userSpaceOnUse" color-interpolation-filters="sRGB">
            <feFlood flood-opacity="0" result="BackgroundImageFix"/>
            <feColorMatrix in="SourceAlpha" type="matrix" values="0 0 0 0 0 0 0 0 0 0 0 0 0 0 0 0 0 0 127 0" result="hardAlpha"/>
            <feOffset/>
            <feGaussianBlur stdDeviation="4"/>
            <feColorMatrix type="matrix" values="0 0 0 0 0.345833 0 0 0 0 0.345833 0 0 0 0 0.345833 0 0 0 0.1 0"/>
            <feBlend mode="normal" in2="BackgroundImageFix" result="effect1_dropShadow_24890_53512"/>
            <feBlend mode="normal" in="SourceGraphic" in2="effect1_dropShadow_24890_53512" result="shape"/>
        </filter>
        <filter id="filter2_d_24890_53512" x="152" y="0" width="83" height="59" filterUnits="userSpaceOnUse" color-interpolation-filters="sRGB">
            <feFlood flood-opacity="0" result="BackgroundImageFix"/>
            <feColorMatrix in="SourceAlpha" type="matrix" values="0 0 0 0 0 0 0 0 0 0 0 0 0 0 0 0 0 0 127 0" result="hardAlpha"/>
            <feOffset/>
            <feGaussianBlur stdDeviation="4"/>
            <feColorMatrix type="matrix" values="0 0 0 0 0.345833 0 0 0 0 0.345833 0 0 0 0 0.345833 0 0 0 0.1 0"/>
            <feBlend mode="normal" in2="BackgroundImageFix" result="effect1_dropShadow_24890_53512"/>
            <feBlend mode="normal" in="SourceGraphic" in2="effect1_dropShadow_24890_53512" result="shape"/>
        </filter>
        <filter id="filter3_d_24890_53512" x="229" y="0" width="82" height="59" filterUnits="userSpaceOnUse" color-interpolation-filters="sRGB">
            <feFlood flood-opacity="0" result="BackgroundImageFix"/>
            <feColorMatrix in="SourceAlpha" type="matrix" values="0 0 0 0 0 0 0 0 0 0 0 0 0 0 0 0 0 0 127 0" result="hardAlpha"/>
            <feOffset/>
            <feGaussianBlur stdDeviation="4"/>
            <feColorMatrix type="matrix" values="0 0 0 0 0.345833 0 0 0 0 0.345833 0 0 0 0 0.345833 0 0 0 0.1 0"/>
            <feBlend mode="normal" in2="BackgroundImageFix" result="effect1_dropShadow_24890_53512"/>
            <feBlend mode="normal" in="SourceGraphic" in2="effect1_dropShadow_24890_53512" result="shape"/>
        </filter>
        <filter id="filter4_d_24890_53512" x="305" y="0" width="82" height="59" filterUnits="userSpaceOnUse" color-interpolation-filters="sRGB">
            <feFlood flood-opacity="0" result="BackgroundImageFix"/>
            <feColorMatrix in="SourceAlpha" type="matrix" values="0 0 0 0 0 0 0 0 0 0 0 0 0 0 0 0 0 0 127 0" result="hardAlpha"/>
            <feOffset/>
            <feGaussianBlur stdDeviation="4"/>
            <feColorMatrix type="matrix" values="0 0 0 0 0.345833 0 0 0 0 0.345833 0 0 0 0 0.345833 0 0 0 0.1 0"/>
            <feBlend mode="normal" in2="BackgroundImageFix" result="effect1_dropShadow_24890_53512"/>
            <feBlend mode="normal" in="SourceGraphic" in2="effect1_dropShadow_24890_53512" result="shape"/>
        </filter>
        <clipPath id="clip0_24890_53512">
            <rect width="20" height="20" fill="white" transform="translate(31 19.5)"/>
        </clipPath>
    </defs>
</svg>
